<svg xmlns="http://www.w3.org/2000/svg" xmlns:xlink="http://www.w3.org/1999/xlink" viewBox="0 0 100 100" shape-rendering="geometricPrecision" text-rendering="geometricPrecision">
    <path d="M 10 70 L 90 70" stroke="#000000" fill="none" />
    <path d="M 10 10 L 10 90" stroke="#000000" fill="none" />
    <path d="M 8 12 L 10 10 L 12 12" stroke="#000000" fill="none" />
    <path d="M 88 68 L 90 70 L 88 72" stroke="#000000" fill="none" />

    <path d="M 10 70 L 10 20.0" stroke="#0099FF" fill="none" />
    <path d="M 15 70 L 15 32.5" stroke="#0099FF" fill="none" />
    <path d="M 20 70 L 20 41.875" stroke="#0099FF" fill="none" />
    <path d="M 25 70 L 25 48.90625" stroke="#0099FF" fill="none" />
    <path d="M 30 70 L 30 54.1796875" stroke="#0099FF" fill="none" />
    <path d="M 35 70 L 35 58.134765625" stroke="#0099FF" fill="none" />
    <path d="M 40 70 L 40 61.10107421875" stroke="#0099FF" fill="none" />
    <path d="M 45 70 L 45 63.3258056640625" stroke="#0099FF" fill="none" />
    <path d="M 50 70 L 50 64.99435424804688" stroke="#0099FF" fill="none" />
    <path d="M 55 70 L 55 66.24576568603516" stroke="#0099FF" fill="none" />
    <path d="M 60 70 L 60 67.18432426452637" stroke="#0099FF" fill="none" />
    <path d="M 65 70 L 65 67.88824319839478" stroke="#0099FF" fill="none" />
    <path d="M 70 70 L 70 68.41618239879608" stroke="#0099FF" fill="none" />
    <path d="M 75 70 L 75 68.81213679909706" stroke="#0099FF" fill="none" />
    <path d="M 80 70 L 80 69.1091025993228" stroke="#0099FF" fill="none" />

    <ellipse cx="10" cy="20.0" rx="1" ry="1" fill="#00CCFF" />
    <ellipse cx="15" cy="32.5" rx="1" ry="1" fill="#00CCFF" />
    <ellipse cx="20" cy="41.875" rx="1" ry="1" fill="#00CCFF" />
    <ellipse cx="25" cy="48.90625" rx="1" ry="1" fill="#00CCFF" />
    <ellipse cx="30" cy="54.1796875" rx="1" ry="1" fill="#00CCFF" />
    <ellipse cx="35" cy="58.134765625" rx="1" ry="1" fill="#00CCFF" />
    <ellipse cx="40" cy="61.10107421875" rx="1" ry="1" fill="#00CCFF" />
    <ellipse cx="45" cy="63.3258056640625" rx="1" ry="1" fill="#00CCFF" />
    <ellipse cx="50" cy="64.99435424804688" rx="1" ry="1" fill="#00CCFF" />
    <ellipse cx="55" cy="66.24576568603516" rx="1" ry="1" fill="#00CCFF" />
    <ellipse cx="60" cy="67.18432426452637" rx="1" ry="1" fill="#00CCFF" />
    <ellipse cx="65" cy="67.88824319839478" rx="1" ry="1" fill="#00CCFF" />
    <ellipse cx="70" cy="68.41618239879608" rx="1" ry="1" fill="#00CCFF" />
    <ellipse cx="75" cy="68.81213679909706" rx="1" ry="1" fill="#00CCFF" />
    <ellipse cx="80" cy="69.1091025993228" rx="1" ry="1" fill="#00CCFF" />
</svg>