<svg xmlns="http://www.w3.org/2000/svg" xmlns:xlink="http://www.w3.org/1999/xlink" viewBox="0 0 860 230" shape-rendering="geometricPrecision" text-rendering="geometricPrecision">
    <rect x="10" y="10" width="840" height="210" rx="10" ry="10" fill="#FF0099" />
    
    <rect x="20" y="20" width="440" height="190" rx="10" ry="10" fill="#99FF00" />
    <rect x="20" y="20" width="820" height="145" rx="10" ry="10" fill="#99FF00" />

    <rect x="30" y="30" width="420" height="170" rx="10" ry="10" fill="#999999" />
    <rect x="30" y="30" width="800" height="110" rx="10" ry="10" fill="#999999" />
    
    <rect x="40" y="40" width="400" height="150" rx="10" ry="10" fill="#00FF99" />
    
    <rect x="50" y="50" width="380" height="115" rx="10" ry="10" fill="#990099" />
    
    <rect x="60" y="60" width="360" height="80" rx="10" ry="10" fill="#FF9900" />
    
    <rect x="70" y="70" width="340" height="45" rx="10" ry="10" fill="#0099FF" />

    <rect x="470" y="70" width="340" height="45" rx="10" ry="10" fill="#0099FF" />
    
    <rect x="440" y="130" width="20" height="20" rx="10" ry="10" fill="#999999" />
    <rect x="450" y="140" width="20" height="20" rx="10" ry="10" fill="#99FF00" />

    <rect x="450" y="155" width="20" height="20" rx="10" ry="10" fill="#99FF00" />
    <rect x="460" y="165" width="20" height="20" rx="10" ry="10" fill="#FF0099" />
    

    <text x="80" y="90" font-size="15" alignment-baseline="top" text-anchor="start" font-family="Consolas" fill="#FFFFFF">Halbgruppe</text>
    <text x="80" y="130" font-size="15" alignment-baseline="top" text-anchor="start" font-family="Consolas" fill="#FFFFFF">Monoid</text>
    <text x="80" y="155" font-size="15" alignment-baseline="top" text-anchor="start" font-family="Consolas" fill="#FFFFFF">Gruppe</text>
    <text x="80" y="180" font-size="15" alignment-baseline="top" text-anchor="start" font-family="Consolas" fill="#FFFFFF">Kommutative Gruppe</text>

    <text x="260" y="90" font-size="15" alignment-baseline="top" text-anchor="start" font-family="Consolas" fill="#FFFFFF">⊕ Abgeschlossen</text>
    <text x="260" y="105" font-size="15" alignment-baseline="top" text-anchor="start" font-family="Consolas" fill="#FFFFFF">⊕ Assoziativ</text>
    <text x="260" y="130" font-size="15" alignment-baseline="top" text-anchor="start" font-family="Consolas" fill="#FFFFFF">⊕ Neutral Element</text>
    <text x="260" y="155" font-size="15" alignment-baseline="top" text-anchor="start" font-family="Consolas" fill="#FFFFFF">⊕ Inverse Elemente</text>
    <text x="260" y="180" font-size="15" alignment-baseline="top" text-anchor="start" font-family="Consolas" fill="#FFFFFF">⊕ Kommutativ</text>

    <text x="480" y="90" font-size="15" alignment-baseline="top" text-anchor="start" font-family="Consolas" fill="#FFFFFF">⊙ Abgeschlossen</text>
    <text x="480" y="105" font-size="15" alignment-baseline="top" text-anchor="start" font-family="Consolas" fill="#FFFFFF">⊙ Assoziativ</text>
    <text x="480" y="130" font-size="15" alignment-baseline="top" text-anchor="start" font-family="Consolas" fill="#FFFFFF">⊕, ⊙ Distributiv</text>
    <text x="480" y="155" font-size="15" alignment-baseline="top" text-anchor="start" font-family="Consolas" fill="#FFFFFF">⊙ Kommutativ</text>
    <text x="480" y="180" font-size="15" alignment-baseline="top" text-anchor="start" font-family="Consolas" fill="#FFFFFF">⊙ Neutral Element</text>
    <text x="480" y="195" font-size="15" alignment-baseline="top" text-anchor="start" font-family="Consolas" fill="#FFFFFF">⊙ Inverse Elemente</text>

    <text x="660" y="90" font-size="15" alignment-baseline="top" text-anchor="start" font-family="Consolas" fill="#FFFFFF">Halbgruppe</text>
    <text x="660" y="130" font-size="15" alignment-baseline="top" text-anchor="start" font-family="Consolas" fill="#FFFFFF">Ring</text>
    <text x="660" y="155" font-size="15" alignment-baseline="top" text-anchor="start" font-family="Consolas" fill="#FFFFFF">Kommutativer Ring</text>
    <text x="660" y="180" font-size="15" alignment-baseline="top" text-anchor="start" font-family="Consolas" fill="#FFFFFF">Körper</text>
</svg>