<svg xmlns="http://www.w3.org/2000/svg" xmlns:xlink="http://www.w3.org/1999/xlink" viewBox="0 0 100 100" shape-rendering="geometricPrecision" text-rendering="geometricPrecision">
    <path d="M 10 70 L 90 70" stroke="#000000" fill="none" />
    <path d="M 10 10 L 10 90" stroke="#000000" fill="none" />
    <path d="M 8 12 L 10 10 L 12 12" stroke="#000000" fill="none" />
    <path d="M 88 68 L 90 70 L 88 72" stroke="#000000" fill="none" />

    <path d="M 10 70 L 10 70" stroke="#DD6600" fill="none" />
    <path d="M 15 70 L 15 70.0" stroke="#DD6600" fill="none" />
    <path d="M 20 70 L 20 69.5" stroke="#DD6600" fill="none" />
    <path d="M 25 70 L 25 68.5" stroke="#DD6600" fill="none" />
    <path d="M 30 70 L 30 67.0" stroke="#DD6600" fill="none" />
    <path d="M 35 70 L 35 65.0" stroke="#DD6600" fill="none" />
    <path d="M 40 70 L 40 62.5" stroke="#DD6600" fill="none" />
    <path d="M 45 70 L 45 59.5" stroke="#DD6600" fill="none" />
    <path d="M 50 70 L 50 56.0" stroke="#DD6600" fill="none" />
    <path d="M 55 70 L 55 52.0" stroke="#DD6600" fill="none" />
    <path d="M 60 70 L 60 47.5" stroke="#DD6600" fill="none" />
    <path d="M 65 70 L 65 42.5" stroke="#DD6600" fill="none" />
    <path d="M 70 70 L 70 37.0" stroke="#DD6600" fill="none" />
    <path d="M 75 70 L 75 31.0" stroke="#DD6600" fill="none" />
    <path d="M 80 70 L 80 24.5" stroke="#DD6600" fill="none" />

    <ellipse cx="10" cy="70" rx="1" ry="1" fill="#DD9900" />
    <ellipse cx="15" cy="70.0" rx="1" ry="1" fill="#DD9900" />
    <ellipse cx="20" cy="69.5" rx="1" ry="1" fill="#DD9900" />
    <ellipse cx="25" cy="68.5" rx="1" ry="1" fill="#DD9900" />
    <ellipse cx="30" cy="67.0" rx="1" ry="1" fill="#DD9900" />
    <ellipse cx="35" cy="65.0" rx="1" ry="1" fill="#DD9900" />
    <ellipse cx="40" cy="62.5" rx="1" ry="1" fill="#DD9900" />
    <ellipse cx="45" cy="59.5" rx="1" ry="1" fill="#DD9900" />
    <ellipse cx="50" cy="56.0" rx="1" ry="1" fill="#DD9900" />
    <ellipse cx="55" cy="52.0" rx="1" ry="1" fill="#DD9900" />
    <ellipse cx="60" cy="47.5" rx="1" ry="1" fill="#DD9900" />
    <ellipse cx="65" cy="42.5" rx="1" ry="1" fill="#DD9900" />
    <ellipse cx="70" cy="37.0" rx="1" ry="1" fill="#DD9900" />
    <ellipse cx="75" cy="31.0" rx="1" ry="1" fill="#DD9900" />
    <ellipse cx="80" cy="24.5" rx="1" ry="1" fill="#DD9900" />
</svg>