<svg xmlns="http://www.w3.org/2000/svg" xmlns:xlink="http://www.w3.org/1999/xlink" viewBox="0 0 100 100" shape-rendering="geometricPrecision" text-rendering="geometricPrecision">
    <path d="M 10 70 L 90 70" stroke="#000000" fill="none" />
    <path d="M 10 10 L 10 90" stroke="#000000" fill="none" />
    <path d="M 8 12 L 10 10 L 12 12" stroke="#000000" fill="none" />
    <path d="M 88 68 L 90 70 L 88 72" stroke="#000000" fill="none" />

    <path d="M 10 70 L 10 85" stroke="#FF9900" fill="none" />
    <path d="M 15 70 L 15 80" stroke="#FF9900" fill="none" />
    <path d="M 20 70 L 20 75" stroke="#FF9900" fill="none" />
    <path d="M 25 70 L 25 70" stroke="#FF9900" fill="none" />
    <path d="M 30 70 L 30 65" stroke="#FF9900" fill="none" />
    <path d="M 35 70 L 35 60" stroke="#FF9900" fill="none" />
    <path d="M 40 70 L 40 55" stroke="#FF9900" fill="none" />
    <path d="M 45 70 L 45 50" stroke="#FF9900" fill="none" />
    <path d="M 50 70 L 50 45" stroke="#FF9900" fill="none" />
    <path d="M 55 70 L 55 40" stroke="#FF9900" fill="none" />
    <path d="M 60 70 L 60 35" stroke="#FF9900" fill="none" />
    <path d="M 65 70 L 65 30" stroke="#FF9900" fill="none" />
    <path d="M 70 70 L 70 25" stroke="#FF9900" fill="none" />
    <path d="M 75 70 L 75 20" stroke="#FF9900" fill="none" />
    <path d="M 80 70 L 80 15" stroke="#FF9900" fill="none" />

    <ellipse cx="10" cy="85" rx="1" ry="1" fill="#FFCC00" />
    <ellipse cx="15" cy="80" rx="1" ry="1" fill="#FFCC00" />
    <ellipse cx="20" cy="75" rx="1" ry="1" fill="#FFCC00" />
    <ellipse cx="25" cy="70" rx="1" ry="1" fill="#FFCC00" />
    <ellipse cx="30" cy="65" rx="1" ry="1" fill="#FFCC00" />
    <ellipse cx="35" cy="60" rx="1" ry="1" fill="#FFCC00" />
    <ellipse cx="40" cy="55" rx="1" ry="1" fill="#FFCC00" />
    <ellipse cx="45" cy="50" rx="1" ry="1" fill="#FFCC00" />
    <ellipse cx="50" cy="45" rx="1" ry="1" fill="#FFCC00" />
    <ellipse cx="55" cy="40" rx="1" ry="1" fill="#FFCC00" />
    <ellipse cx="60" cy="35" rx="1" ry="1" fill="#FFCC00" />
    <ellipse cx="65" cy="30" rx="1" ry="1" fill="#FFCC00" />
    <ellipse cx="70" cy="25" rx="1" ry="1" fill="#FFCC00" />
    <ellipse cx="75" cy="20" rx="1" ry="1" fill="#FFCC00" />
    <ellipse cx="80" cy="15" rx="1" ry="1" fill="#FFCC00" />
</svg>