<svg xmlns="http://www.w3.org/2000/svg" xmlns:xlink="http://www.w3.org/1999/xlink" viewBox="0 0 200 200" shape-rendering="geometricPrecision" text-rendering="geometricPrecision">
    <rect x="10" y="10" width="180" height="180" rx="10" ry="10" fill="#0099FF" />

    <rect x="20" y="140" width="160" height="40" rx="10" ry="10" fill="#FF9900" />
    <rect x="20" y="100" width="80" height="80" rx="10" ry="10" fill="#FF9900" />

    <rect x="90" y="130" width="20" height="20" rx="10" ry="10" fill="#FF9900" />
    <rect x="100" y="120" width="20" height="20" rx="10" ry="10" fill="#0099FF" />

    

    <path d="M 100 40 L 100 80" stroke="#555599" fill=""/>
    <path d="M 100 80 L 60 120" stroke="#555599" fill=""/>
    <path d="M 100 80 L 140 120" stroke="#555599" fill=""/>
    <path d="M 140 120 L 140 160" stroke="#555599" fill=""/>

    <path d="M 98 68 L 100 70 L 102 68" stroke="#555599" fill="none"/>
    <path d="M 67.5 110 L 67.5 112.5 L 70 112.5" stroke="#555599" fill="none"/>
    <path d="M 132.5 110 L 132.5 112.5 L 130 112.5" stroke="#555599" fill="none"/>
    <path d="M 138 148 L 140 150 L 142 148" stroke="#555599" fill="none"/>
    
    <ellipse cx="100" cy="40" rx="10" ry="10" fill="#00CCFF" stroke="#00FFFF" stroke-width="1"/>
    
    <ellipse cx="100" cy="80" rx="10" ry="10" fill="#00CCFF" stroke="#00FFFF" stroke-width="1"/>
    
    <ellipse cx="60" cy="120" rx="10" ry="10" fill="#FFCC00" stroke="#FFFF00" stroke-width="1"/>
    <ellipse cx="140" cy="120" rx="10" ry="10" fill="#00CCFF" stroke="#00FFFF" stroke-width="1"/>
    
    <ellipse cx="140" cy="160" rx="10" ry="10" fill="#FFCC00" stroke="#FFFF00" stroke-width="1"/>
    

    <text x="100" y="40" dominant-baseline="middle" text-anchor="middle" font-family="Consolas">¬</text>

    <text x="100" y="80" dominant-baseline="middle" text-anchor="middle" font-family="Consolas">∧</text>
    
    <text x="60" y="120" dominant-baseline="middle" text-anchor="middle" font-family="Consolas">A</text>
    <text x="140" y="120" dominant-baseline="middle" text-anchor="middle" font-family="Consolas">¬</text>
    
    <text x="140" y="160" dominant-baseline="middle" text-anchor="middle" font-family="Consolas">B</text>


    <text x="50" y="40" dominant-baseline="middle" text-anchor="middle" font-family="Consolas" fill="#FFFFFF">Formeln</text>
    <text x="100" y="160" dominant-baseline="middle" text-anchor="middle" font-family="Consolas" fill="#FFFFFF">Atome</text>
</svg>