<svg xmlns="http://www.w3.org/2000/svg" xmlns:xlink="http://www.w3.org/1999/xlink" viewBox="0 0 130 130" shape-rendering="geometricPrecision" text-rendering="geometricPrecision">
    <mask id="mask">
        <rect x="25" y="25" width="80" height="80" fill="#FFFFFF"/>
    </mask>
    
    <rect x="5" y="5" width="120" height="120" rx="10" ry="10" fill="#00000099" />
    
    <path d="M 25 5 L 25 125" stroke="#000000"/>
    <path d="M 45 5 L 45 125" stroke="#000000"/>
    <path d="M 65 5 L 65 125" stroke="#000000"/>
    <path d="M 85 5 L 85 125" stroke="#000000"/>
    <path d="M 105 5 L 105 125" stroke="#000000"/>

    <path d="M 5 25 L 125 25" stroke="#000000"/>
    <path d="M 5 45 L 125 45" stroke="#000000"/>
    <path d="M 5 65 L 125 65" stroke="#000000"/>
    <path d="M 5 85 L 125 85" stroke="#000000"/>
    <path d="M 5 105 L 125 105" stroke="#000000"/>

    <rect x="46" y="26" width="38" height="38" rx="5" ry="5" stroke="#FF0099DD" fill="none" />
    <rect x="26" y="46" width="38" height="38" rx="5" ry="5" stroke="#99FF00DD" fill="none" />
    <rect x="26" y="66" width="38" height="38" rx="5" ry="5" stroke="#999999DD" fill="none" />
    <rect x="66" y="66" width="38" height="38" rx="5" ry="5" stroke="#00FF99DD" fill="none" />
    
    <rect x="86" y="26" width="18" height="78" rx="5" ry="5" stroke="#990099DD" fill="none" />
    
    <rect x="6" y="26" width="38" height="18" rx="5" ry="5" stroke="#0099FFDD" fill="none" mask="url(#mask)"/>
    <rect x="86" y="26" width="38" height="18" rx="5" ry="5" stroke="#0099FFDD" fill="none" mask="url(#mask)"/>

    


    
    <text x="35" y="15" dominant-baseline="middle" text-anchor="middle" font-family="Consolas" fill="#FF9900">A</text>
    <text x="55" y="15" dominant-baseline="middle" text-anchor="middle" font-family="Consolas" fill="#FF9900">A</text>
    <text x="75" y="15" dominant-baseline="middle" text-anchor="middle" font-family="Consolas" fill="#FF9900">¬A</text>
    <text x="95" y="15" dominant-baseline="middle" text-anchor="middle" font-family="Consolas" fill="#FF9900">¬A</text>

    <text x="15" y="35" dominant-baseline="middle" text-anchor="middle" font-family="Consolas" fill="#FF9900">B</text>
    <text x="35" y="35" dominant-baseline="middle" text-anchor="middle" font-family="Consolas" fill="#00FF00">W</text>
    <text x="55" y="35" dominant-baseline="middle" text-anchor="middle" font-family="Consolas" fill="#FF0000">F</text>
    <text x="75" y="35" dominant-baseline="middle" text-anchor="middle" font-family="Consolas" fill="#FF0000">F</text>
    <text x="95" y="35" dominant-baseline="middle" text-anchor="middle" font-family="Consolas" fill="#00FF00">W</text>
    <text x="115" y="35" dominant-baseline="middle" text-anchor="middle" font-family="Consolas" fill="#FF9900">D</text>
    
    <text x="15" y="55" dominant-baseline="middle" text-anchor="middle" font-family="Consolas" fill="#FF9900">B</text>
    <text x="35" y="55" dominant-baseline="middle" text-anchor="middle" font-family="Consolas" fill="#FF0000">F</text>
    <text x="55" y="55" dominant-baseline="middle" text-anchor="middle" font-family="Consolas" fill="#FF0000">F</text>
    <text x="75" y="55" dominant-baseline="middle" text-anchor="middle" font-family="Consolas" fill="#FF0000">F</text>
    <text x="95" y="55" dominant-baseline="middle" text-anchor="middle" font-family="Consolas" fill="#00FF00">W</text>
    <text x="115" y="55" dominant-baseline="middle" text-anchor="middle" font-family="Consolas" fill="#FF9900">¬D</text>
    
    <text x="15" y="75" dominant-baseline="middle" text-anchor="middle" font-family="Consolas" fill="#FF9900">¬B</text>
    <text x="35" y="75" dominant-baseline="middle" text-anchor="middle" font-family="Consolas" fill="#FF0000">F</text>
    <text x="55" y="75" dominant-baseline="middle" text-anchor="middle" font-family="Consolas" fill="#FF0000">F</text>
    <text x="75" y="75" dominant-baseline="middle" text-anchor="middle" font-family="Consolas" fill="#00FF00">W</text>
    <text x="95" y="75" dominant-baseline="middle" text-anchor="middle" font-family="Consolas" fill="#00FF00">W</text>
    <text x="115" y="75" dominant-baseline="middle" text-anchor="middle" font-family="Consolas" fill="#FF9900">¬D</text>
    
    <text x="15" y="95" dominant-baseline="middle" text-anchor="middle" font-family="Consolas" fill="#FF9900">¬B</text>
    <text x="35" y="95" dominant-baseline="middle" text-anchor="middle" font-family="Consolas" fill="#FF0000">F</text>
    <text x="55" y="95" dominant-baseline="middle" text-anchor="middle" font-family="Consolas" fill="#FF0000">F</text>
    <text x="75" y="95" dominant-baseline="middle" text-anchor="middle" font-family="Consolas" fill="#00FF00">W</text>
    <text x="95" y="95" dominant-baseline="middle" text-anchor="middle" font-family="Consolas" fill="#00FF00">W</text>
    <text x="115" y="95" dominant-baseline="middle" text-anchor="middle" font-family="Consolas" fill="#FF9900">D</text>

    <text x="35" y="115" dominant-baseline="middle" text-anchor="middle" font-family="Consolas" fill="#FF9900">C</text>
    <text x="55" y="115" dominant-baseline="middle" text-anchor="middle" font-family="Consolas" fill="#FF9900">¬C</text>
    <text x="75" y="115" dominant-baseline="middle" text-anchor="middle" font-family="Consolas" fill="#FF9900">¬C</text>
    <text x="95" y="115" dominant-baseline="middle" text-anchor="middle" font-family="Consolas" fill="#FF9900">C</text>
</svg>