<svg xmlns="http://www.w3.org/2000/svg" xmlns:xlink="http://www.w3.org/1999/xlink" viewBox="0 0 140 140" shape-rendering="geometricPrecision" text-rendering="geometricPrecision">
    <rect x="10" y="10" width="120" height="120" rx="10" ry="10" fill="#AAAAAA" />
    <rect x="50" y="10" width="80" height="80" rx="10" ry="10" fill="#FF9900AA" />
    <rect x="10" y="50" width="80" height="80" rx="10" ry="10" fill="#FF9900AA" />

    <ellipse cx="30" cy="30" rx="10" ry="10" fill="#CCCCCC" stroke="#DDDDDD" stroke-width="1"/>
    <ellipse cx="70" cy="30" rx="10" ry="10" fill="#FFCC00" stroke="#FFFF00" stroke-width="1"/>
    <ellipse cx="110" cy="30" rx="10" ry="10" fill="#FFCC00" stroke="#FFFF00" stroke-width="1"/>
    
    <ellipse cx="30" cy="70" rx="10" ry="10" fill="#FFCC00" stroke="#FFFF00" stroke-width="1"/>
    <ellipse cx="70" cy="70" rx="10" ry="10" fill="#FFCC00" stroke="#FFFF00" stroke-width="1"/>
    <ellipse cx="110" cy="70" rx="10" ry="10" fill="#FFCC00" stroke="#FFFF00" stroke-width="1"/>
    
    <ellipse cx="30" cy="110" rx="10" ry="10" fill="#FFCC00" stroke="#FFFF00" stroke-width="1"/>
    <ellipse cx="70" cy="110" rx="10" ry="10" fill="#FFCC00" stroke="#FFFF00" stroke-width="1"/>
    <ellipse cx="110" cy="110" rx="10" ry="10" fill="#CCCCCC" stroke="#DDDDDD" stroke-width="1"/>
    
    <text x="30" y="30" dominant-baseline="middle" text-anchor="middle" font-family="Consolas">a</text>
    <text x="70" y="30" dominant-baseline="middle" text-anchor="middle" font-family="Consolas">b</text>
    <text x="110" y="30" dominant-baseline="middle" text-anchor="middle" font-family="Consolas">c</text>
    
    <text x="30" y="70" dominant-baseline="middle" text-anchor="middle" font-family="Consolas">d</text>
    <text x="70" y="70" dominant-baseline="middle" text-anchor="middle" font-family="Consolas">e</text>
    <text x="110" y="70" dominant-baseline="middle" text-anchor="middle" font-family="Consolas">f</text>

    <text x="30" y="110" dominant-baseline="middle" text-anchor="middle" font-family="Consolas">g</text>
    <text x="70" y="110" dominant-baseline="middle" text-anchor="middle" font-family="Consolas">h</text>
    <text x="110" y="110" dominant-baseline="middle" text-anchor="middle" font-family="Consolas">i</text>
</svg>