<svg xmlns="http://www.w3.org/2000/svg" xmlns:xlink="http://www.w3.org/1999/xlink" viewBox="0 0 140 140" shape-rendering="geometricPrecision" text-rendering="geometricPrecision">
    <path d="M 70 30 L 35 70 L 17.5 110" stroke="#7777AA" fill="none"/>
    <path d="M 35 70 L 52.5 110" stroke="#7777AA" fill="none"/>
    <path d="M 105 70 L 87.5 110" stroke="#7777AA" fill="none"/>
    <path d="M 70 30 L 105 70 L 122.5 110" stroke="#7777AA" fill="none"/>
    
    <path d="M 42 59 L 42 62 L 45 62" stroke="#7777AA" fill="none"/>
    <path d="M 98 59 L 98 62 L 95 62" stroke="#7777AA" fill="none"/>

    <path d="M 21 98 L 21.5 100 L 24 99.5" stroke="#7777AA" fill="none"/>
    <path d="M 49 98 L 48.5 100 L 46 99.5" stroke="#7777AA" fill="none"/>
    <path d="M 91 98 L 91.5 100 L 94 99.5" stroke="#7777AA" fill="none"/>
    <path d="M 119 98 L 118.5 100 L 116 99.5" stroke="#7777AA" fill="none"/>
    
    
    <ellipse cx="70" cy="30" rx="10" ry="10" fill="#00CCFF" stroke="#00FFFF" stroke-width="1"/>
    <ellipse cx="35" cy="70" rx="10" ry="10" fill="#00CCFF" stroke="#00FFFF" stroke-width="1"/>
    <ellipse cx="105" cy="70" rx="10" ry="10" fill="#00CCFF" stroke="#00FFFF" stroke-width="1"/>
    <ellipse cx="17.5" cy="110" rx="10" ry="10" fill="#00CCFF" stroke="#00FFFF" stroke-width="1"/>
    <ellipse cx="52.5" cy="110" rx="10" ry="10" fill="#00CCFF" stroke="#00FFFF" stroke-width="1"/>
    <ellipse cx="87.5" cy="110" rx="10" ry="10" fill="#00CCFF" stroke="#00FFFF" stroke-width="1"/>
    <ellipse cx="122.5" cy="110" rx="10" ry="10" fill="#00CCFF" stroke="#00FFFF" stroke-width="1"/>
    
    
    <text x="70" y="30" dominant-baseline="middle" text-anchor="middle" font-family="Consolas">1</text>
    <text x="35" y="70" dominant-baseline="middle" text-anchor="middle" font-family="Consolas">2</text>
    <text x="105" y="70" dominant-baseline="middle" text-anchor="middle" font-family="Consolas">5</text>
    <text x="17.5" y="110" dominant-baseline="middle" text-anchor="middle" font-family="Consolas">3</text>
    <text x="52.5" y="110" dominant-baseline="middle" text-anchor="middle" font-family="Consolas">4</text>
    <text x="87.5" y="110" dominant-baseline="middle" text-anchor="middle" font-family="Consolas">6</text>
    <text x="122.5" y="110" dominant-baseline="middle" text-anchor="middle" font-family="Consolas">7</text>
</svg>