<svg xmlns="http://www.w3.org/2000/svg" xmlns:xlink="http://www.w3.org/1999/xlink" viewBox="0 0 420 140" shape-rendering="geometricPrecision" text-rendering="geometricPrecision">
    <g transform="translate(0,0)">
        <path d="M 70 30 L 105 70 L 122.5 110" stroke="#7777AA" fill="none"/>
        
        <path d="M 98 59 L 98 62 L 95 62" stroke="#7777AA" fill="none"/>

        <path d="M 119 98 L 118.5 100 L 116 99.5" stroke="#7777AA" fill="none"/>


        <path d="M 122.5 100 Q 122.5 70 115 70" stroke="#FF9900" fill="none" stroke-dasharray="1 1"/>
        <path d="M 105 60 Q 105 30 80 30" stroke="#FF9900" fill="none" stroke-dasharray="1 1"/>

        <path d="M 117 68 L 115 70 L 117 72" stroke="#FF9900" fill="none"/>
        <path d="M 82 28 L 80 30 L 82 32" stroke="#FF9900" fill="none"/>
        
        
        <ellipse cx="70" cy="30" rx="10" ry="10" fill="#00CCFF" stroke="#00FFFF" stroke-width="1"/>
        <ellipse cx="105" cy="70" rx="10" ry="10" fill="#00CCFF" stroke="#00FFFF" stroke-width="1"/>
        <ellipse cx="122.5" cy="110" rx="10" ry="10" fill="#00CCFF" stroke="#00FFFF" stroke-width="1"/>
        
        
        <text x="70" y="30" dominant-baseline="middle" text-anchor="middle" font-family="Consolas">a</text>
        <text x="105" y="70" dominant-baseline="middle" text-anchor="middle" font-family="Consolas">b</text>
        <text x="122.5" y="110" dominant-baseline="middle" text-anchor="middle" font-family="Consolas">c</text>
    </g>

    <g transform="translate(140,0)">
        <path d="M 70 30 L 35 70" stroke="#7777AA" fill="none"/>
        <path d="M 70 30 L 105 70" stroke="#7777AA" fill="none"/>
        
        <path d="M 42 59 L 42 62 L 45 62" stroke="#7777AA" fill="none"/>
        <path d="M 98 59 L 98 62 L 95 62" stroke="#7777AA" fill="none"/>


        <ellipse cx="70" cy="30" rx="10" ry="10" fill="#00CCFF" stroke="#00FFFF" stroke-width="1"/>
        <ellipse cx="35" cy="70" rx="10" ry="10" fill="#00CCFF" stroke="#00FFFF" stroke-width="1"/>
        <ellipse cx="105" cy="70" rx="10" ry="10" fill="#00CCFF" stroke="#00FFFF" stroke-width="1"/>
        

        <text x="70" y="30" dominant-baseline="middle" text-anchor="middle" font-family="Consolas">b</text>
        <text x="35" y="70" dominant-baseline="middle" text-anchor="middle" font-family="Consolas">a</text>
        <text x="105" y="70" dominant-baseline="middle" text-anchor="middle" font-family="Consolas">c</text>
    </g>

    <g transform="translate(280,0)">
        <path d="M 70 30 L 105 70 L 87.5 110" stroke="#7777AA" fill="none"/>
        
        <path d="M 98 59 L 98 62 L 95 62" stroke="#7777AA" fill="none"/>

        <path d="M 91 98 L 91.5 100 L 94 99.5" stroke="#7777AA" fill="none"/>
        
        
        <path d="M 60 30 Q 35 30 35 60" stroke="#FF9900" fill="none" stroke-dasharray="1 1"/>
        <path d="M 87.5 110 L 70 40" stroke="#FF9900" fill="none" stroke-dasharray="1 1"/>

        <path d="M 33 58 L 35 60 L 37 58" stroke="#FF9900" fill="none"/>
        <path d="M 68 42 L 70 40 L 72 42" stroke="#FF9900" fill="none"/>
        
        
        <ellipse cx="70" cy="30" rx="10" ry="10" fill="#00CCFF" stroke="#00FFFF" stroke-width="1"/>
        <ellipse cx="105" cy="70" rx="10" ry="10" fill="#00CCFF" stroke="#00FFFF" stroke-width="1"/>
        <ellipse cx="87.5" cy="110" rx="10" ry="10" fill="#00CCFF" stroke="#00FFFF" stroke-width="1"/>
        
        
        <text x="70" y="30" dominant-baseline="middle" text-anchor="middle" font-family="Consolas">a</text>
        <text x="105" y="70" dominant-baseline="middle" text-anchor="middle" font-family="Consolas">c</text>
        <text x="87.5" y="110" dominant-baseline="middle" text-anchor="middle" font-family="Consolas">b</text>
    </g>
    
    <path d="M 135 60 L 145 70 L 135 80" stroke="#FF9900" fill="none"/>

    <path d="M 285 60 L 275 70 L 285 80" stroke="#FF9900" fill="none"/>
</svg>