<svg xmlns="http://www.w3.org/2000/svg" xmlns:xlink="http://www.w3.org/1999/xlink" viewBox="0 0 100 100" shape-rendering="geometricPrecision" text-rendering="geometricPrecision">
    <path d="M 50 10 L 50 90" stroke="#000000"/>
    <path d="M 10 50 L 90 50" stroke="#000000"/>
    <path d="M 87 47 L 90 50 L 87 53" stroke="#000000" fill="none"/>
    <path d="M 53 13 L 50 10 L 47 13" stroke="#000000" fill="none"/>
    
    <path d="M 15.0 81.3 L 15.1 81.2 L 15.2 81.0 L 15.3 80.8 L 15.4 80.6 L 15.5 80.4 L 15.6 80.2 L 15.7 80.0 L 15.8 79.8 L 15.9 79.6 L 16.0 79.4 L 16.1 79.2 L 16.2 79.0 L 16.3 78.8 L 16.4 78.5 L 16.5 78.3 L 16.6 78.1 L 16.7 77.9 L 16.8 77.7 L 16.9 77.4 L 17.0 77.2 L 17.1 77.0 L 17.2 76.7 L 17.3 76.5 L 17.4 76.3 L 17.5 76.0 L 17.6 75.8 L 17.7 75.5 L 17.8 75.3 L 17.9 75.0 L 18.0 74.8 L 18.1 74.5 L 18.2 74.3 L 18.3 74.0 L 18.4 73.8 L 18.5 73.5 L 18.6 73.3 L 18.7 73.0 L 18.8 72.8 L 18.9 72.5 L 19.0 72.3 L 19.1 72.0 L 19.2 71.8 L 19.3 71.5 L 19.4 71.2 L 19.5 71.0 L 19.6 70.7 L 19.7 70.5 L 19.8 70.2 L 19.9 70.0 L 20.0 69.7 L 20.1 69.5 L 20.2 69.2 L 20.3 68.9 L 20.4 68.7 L 20.5 68.4 
L 20.6 68.2 L 20.7 67.9 L 20.8 67.7 L 20.9 67.4 L 21.0 67.2 L 21.1 66.9 L 21.2 66.7 L 21.3 66.4 L 21.4 66.2 L 21.5 65.9 L 21.6 65.7 L 21.7 65.5 L 21.8 65.2 L 21.9 65.0 L 22.0 64.7 L 22.1 64.5 L 22.2 64.3 L 22.3 64.0 L 22.4 63.8 L 22.5 63.6 L 22.6 63.3 L 22.7 63.1 L 22.8 62.9 L 22.9 62.7 L 23.0 62.4 L 23.1 62.2 L 23.2 62.0 L 23.3 61.8 L 23.4 61.6 L 23.5 61.3 L 23.6 61.1 L 23.7 60.9 L 23.8 60.7 L 23.9 60.5 L 24.0 60.3 L 24.1 60.1 L 24.2 59.9 L 24.3 59.7 L 24.4 59.5 L 24.5 59.3 L 24.6 59.1 L 24.7 58.9 L 24.8 58.7 L 24.9 58.5 L 25.0 58.4 L 25.1 58.2 L 25.2 58.0 L 25.3 57.8 L 25.4 57.6 L 25.5 57.5 L 25.6 57.3 L 25.7 57.1 L 25.8 57.0 L 25.9 56.8 L 26.0 56.6 L 26.1 56.5 
L 26.2 56.3 L 26.3 56.1 L 26.4 56.0 L 26.5 55.8 L 26.6 55.7 L 26.7 55.5 L 26.8 55.4 L 26.9 55.2 L 27.0 55.1 L 27.1 55.0 L 27.2 54.8 L 27.3 54.7 L 27.4 54.5 L 27.5 54.4 L 27.6 54.3 L 27.7 54.1 L 27.8 54.0 L 27.9 53.9 L 28.0 53.7 L 28.1 53.6 L 28.2 53.5 L 28.3 53.4 L 28.4 53.2 L 28.5 53.1 L 28.6 53.0 L 28.7 52.9 L 28.8 52.8 L 28.9 52.6 L 29.0 52.5 L 29.1 52.4 L 29.2 52.3 L 29.3 52.2 L 29.4 52.1 L 29.5 52.0 L 29.6 51.9 L 29.7 51.8 L 29.8 51.7 L 29.9 51.5 L 30.0 51.4 L 30.1 51.3 L 30.2 51.2 L 30.3 51.1 L 30.4 51.0 L 30.5 50.9 L 30.6 50.8 L 30.7 50.7 L 30.8 50.6 L 30.9 50.5 L 31.0 50.4 L 31.1 50.3 L 31.2 50.2 L 31.3 50.1 L 31.4 50.0 L 31.5 49.9 L 31.6 49.8 L 31.7 49.7 
L 31.8 49.6 L 31.9 49.5 L 32.0 49.4 L 32.1 49.3 L 32.2 49.2 L 32.3 49.1 L 32.4 49.0 L 32.5 48.9 L 32.6 48.8 L 32.7 48.7 L 32.8 48.6 L 32.9 48.5 L 33.0 48.4 L 33.1 48.3 L 33.2 48.2 L 33.3 48.1 L 33.4 48.0 L 33.5 47.8 L 33.6 47.7 L 33.7 47.6 L 33.8 47.5 L 33.9 47.4 L 34.0 47.3 L 34.1 47.2 L 34.2 47.0 L 34.3 46.9 L 34.4 46.8 L 34.5 46.7 L 34.6 46.6 L 34.7 46.4 L 34.8 46.3 L 34.9 46.2 L 35.0 46.0 L 35.1 45.9 L 35.2 45.8 L 35.3 45.6 L 35.4 45.5 L 35.5 45.4 L 35.6 45.2 L 35.7 45.1 L 35.8 45.0 L 35.9 44.8 L 36.0 44.7 L 36.1 44.5 L 36.2 44.4 L 36.3 44.2 L 36.4 44.1 L 36.5 43.9 L 36.6 43.7 L 36.7 43.6 L 36.8 43.4 L 36.9 43.3 L 37.0 43.1 L 37.1 42.9 L 37.2 42.8 L 37.3 42.6 
L 37.4 42.4 L 37.5 42.2 L 37.6 42.1 L 37.7 41.9 L 37.8 41.7 L 37.9 41.5 L 38.0 41.3 L 38.1 41.1 L 38.2 40.9 L 38.3 40.8 L 38.4 40.6 L 38.5 40.4 L 38.6 40.2 L 38.7 40.0 L 38.8 39.8 L 38.9 39.6 L 39.0 39.4 L 39.1 39.1 L 39.2 38.9 L 39.3 38.7 L 39.4 38.5 L 39.5 38.3 L 39.6 38.1 L 39.7 37.9 L 39.8 37.6 L 39.9 37.4 L 40.0 37.2 L 40.1 37.0 L 40.2 36.7 L 40.3 36.5 L 40.4 36.3 L 40.5 36.0 L 40.6 35.8 L 40.7 35.6 L 40.8 35.3 L 40.9 35.1 L 41.0 34.9 L 41.1 34.6 L 41.2 34.4 L 41.3 34.1 L 41.4 33.9 L 41.5 33.6 L 41.6 33.4 L 41.7 33.1 L 41.8 32.9 L 41.9 32.6 L 42.0 32.4 L 42.1 32.1 L 42.2 31.9 L 42.3 31.6 L 42.4 31.4 L 42.5 31.1 L 42.6 30.9 L 42.7 30.6 L 42.8 30.4 L 42.9 30.1 
L 43.0 29.9 L 43.1 29.6 L 43.2 29.3 L 43.3 29.1 L 43.4 28.8 L 43.5 28.6 L 43.6 28.3 L 43.7 28.1 L 43.8 27.8 L 43.9 27.6 L 44.0 27.3 L 44.1 27.0 L 44.2 26.8 L 44.3 26.5 L 44.4 26.3 L 44.5 26.0 L 44.6 25.8 L 44.7 25.5 L 44.8 25.3 L 44.9 25.0 L 45.0 24.8 L 45.1 24.6 L 45.2 24.3 L 45.3 24.1 L 45.4 23.8 L 45.5 23.6 L 45.6 23.3 L 45.7 23.1 L 45.8 22.9 L 45.9 22.6 L 46.0 22.4 L 46.1 22.2 L 46.2 22.0 L 46.3 21.7 L 46.4 21.5 L 46.5 21.3 L 46.6 21.1 L 46.7 20.9 L 46.8 20.7 L 46.9 20.5 L 47.0 20.3 L 47.1 20.0 L 47.2 19.8 L 47.3 19.7 L 47.4 19.5 L 47.5 19.3 L 47.6 19.1 L 47.7 18.9 L 47.8 18.7 L 47.9 18.5 L 48.0 18.4 L 48.1 18.2 L 48.2 18.0 L 48.3 17.9 L 48.4 17.7 L 48.5 17.6 
L 48.6 17.4 L 48.7 17.3 L 48.8 17.1 L 48.9 17.0 L 49.0 16.9 L 49.1 16.7 L 49.2 16.6 L 49.3 16.5 L 49.4 16.4 L 49.5 16.3 L 49.6 16.2 L 49.7 16.1 L 49.8 16.0 L 49.9 15.9 L 50.0 15.8 L 50.1 15.7 L 50.2 15.6 L 50.3 15.6 L 50.4 15.5 L 50.5 15.4 L 50.6 15.4 L 50.7 15.3 L 50.8 15.3 L 50.9 15.3 L 51.0 15.2 L 51.1 15.2 L 51.2 15.2 L 51.3 15.2 L 51.4 15.2 L 51.5 15.2 L 51.6 15.2 L 51.7 15.2 L 51.8 15.2 L 51.9 15.2 L 52.0 15.2 L 52.1 15.2 L 52.2 15.3 L 52.3 15.3 L 52.4 15.4 L 52.5 15.4 L 52.6 15.5 L 52.7 15.6 L 52.8 15.6 L 52.9 15.7 L 53.0 15.8 L 53.1 15.9 L 53.2 16.0 L 53.3 16.1 L 53.4 16.2 L 53.5 16.3 L 53.6 16.5 L 53.7 16.6 L 53.8 16.7 L 53.9 16.9 L 54.0 17.0 L 54.1 17.2 
L 54.2 17.3 L 54.3 17.5 L 54.4 17.7 L 54.5 17.8 L 54.6 18.0 L 54.7 18.2 L 54.8 18.4 L 54.9 18.6 L 55.0 18.8 L 55.1 19.1 L 55.2 19.3 L 55.3 19.5 L 55.4 19.7 L 55.5 20.0 L 55.6 20.2 L 55.7 20.5 L 55.8 20.7 L 55.9 21.0 L 56.0 21.3 L 56.1 21.5 L 56.2 21.8 L 56.3 22.1 L 56.4 22.4 L 56.5 22.7 L 56.6 23.0 L 56.7 23.3 L 56.8 23.6 L 56.9 24.0 L 57.0 24.3 L 57.1 24.6 L 57.2 25.0 L 57.3 25.3 L 57.4 25.6 L 57.5 26.0 L 57.6 26.4 L 57.7 26.7 L 57.8 27.1 L 57.9 27.5 L 58.0 27.8 L 58.1 28.2 L 58.2 28.6 L 58.3 29.0 L 58.4 29.4 L 58.5 29.8 L 58.6 30.2 L 58.7 30.6 L 58.8 31.0 L 58.9 31.4 L 59.0 31.8 L 59.1 32.3 L 59.2 32.7 L 59.3 33.1 L 59.4 33.6 L 59.5 34.0 L 59.6 34.4 L 59.7 34.9 
L 59.8 35.3 L 59.9 35.8 L 60.0 36.3 L 60.1 36.7 L 60.2 37.2 L 60.3 37.6 L 60.4 38.1 L 60.5 38.6 L 60.6 39.0 L 60.7 39.5 L 60.8 40.0 L 60.9 40.5 L 61.0 41.0 L 61.1 41.4 L 61.2 41.9 L 61.3 42.4 L 61.4 42.9 L 61.5 43.4 L 61.6 43.9 L 61.7 44.4 L 61.8 44.9 L 61.9 45.4 L 62.0 45.9 L 62.1 46.3 L 62.2 46.8 L 62.3 47.3 L 62.4 47.8 L 62.5 48.3 L 62.6 48.8 L 62.7 49.3 L 62.8 49.8 L 62.9 50.3 L 63.0 50.8 L 63.1 51.3 L 63.2 51.8 L 63.3 52.3 L 63.4 52.8 L 63.5 53.3 L 63.6 53.8 L 63.7 54.3 L 63.8 54.8 L 63.9 55.3 L 64.0 55.8 L 64.1 56.3 L 64.2 56.8 L 64.3 57.3 L 64.4 57.8 L 64.5 58.3 L 64.6 58.7 L 64.7 59.2 L 64.8 59.7 L 64.9 60.2 L 65.0 60.7 L 65.1 61.1 L 65.2 61.6 L 65.3 62.1 
L 65.4 62.5 L 65.5 63.0 L 65.6 63.5 L 65.7 63.9 L 65.8 64.4 L 65.9 64.8 L 66.0 65.3 L 66.1 65.7 L 66.2 66.2 L 66.3 66.6 L 66.4 67.0 L 66.5 67.5 L 66.6 67.9 L 66.7 68.3 L 66.8 68.7 L 66.9 69.1 L 67.0 69.5 L 67.1 70.0 L 67.2 70.4 L 67.3 70.8 L 67.4 71.2 L 67.5 71.5 L 67.6 71.9 L 67.7 72.3 L 67.8 72.7 L 67.9 73.0 L 68.0 73.4 L 68.1 73.8 L 68.2 74.1 L 68.3 74.5 L 68.4 74.8 L 68.5 75.2 L 68.6 75.5 L 68.7 75.8 L 68.8 76.2 L 68.9 76.5 L 69.0 76.8 L 69.1 77.1 L 69.2 77.4 L 69.3 77.7 L 69.4 78.0 L 69.5 78.3 L 69.6 78.6 L 69.7 78.8 L 69.8 79.1 L 69.9 79.4 L 70.0 79.6 L 70.1 79.9 L 70.2 80.1 L 70.3 80.3 L 70.4 80.6 L 70.5 80.8 L 70.6 81.0 L 70.7 81.2 L 70.8 81.5 L 70.9 81.7 
L 71.0 81.8 L 71.1 82.0 L 71.2 82.2 L 71.3 82.4 L 71.4 82.6 L 71.5 82.7 L 71.6 82.9 L 71.7 83.0 L 71.8 83.2 L 71.9 83.3 L 72.0 83.5 L 72.1 83.6 L 72.2 83.7 L 72.3 83.8 L 72.4 83.9 L 72.5 84.0 L 72.6 84.1 L 72.7 84.2 L 72.8 84.3 L 72.9 84.4 L 73.0 84.5 L 73.1 84.5 L 73.2 84.6 L 73.3 84.6 L 73.4 84.7 L 73.5 84.7 L 73.6 84.8 L 73.7 84.8 L 73.8 84.8 L 73.9 84.8 L 74.0 84.8 L 74.1 84.8 L 74.2 84.8 L 74.3 84.8 L 74.4 84.8 L 74.5 84.8 L 74.6 84.8 L 74.7 84.8 L 74.8 84.7 L 74.9 84.7 L 75.0 84.6 L 75.1 84.6 L 75.2 84.5 L 75.3 84.5 L 75.4 84.4 L 75.5 84.3 L 75.6 84.3 L 75.7 84.2 L 75.8 84.1 L 75.9 84.0 L 76.0 83.9 L 76.1 83.8 L 76.2 83.7 L 76.3 83.6 L 76.4 83.5 L 76.5 83.3 
L 76.6 83.2 L 76.7 83.1 L 76.8 83.0 L 76.9 82.8 L 77.0 82.7 L 77.1 82.5 L 77.2 82.4 L 77.3 82.2 L 77.4 82.1 L 77.5 81.9 L 77.6 81.7 L 77.7 81.6 L 77.8 81.4 L 77.9 81.2 L 78.0 81.0 L 78.1 80.8 L 78.2 80.7 L 78.3 80.5 L 78.4 80.3 L 78.5 80.1 L 78.6 79.9 L 78.7 79.7 L 78.8 79.5 L 78.9 79.3 L 79.0 79.0 L 79.1 78.8 L 79.2 78.6 L 79.3 78.4 L 79.4 78.2 L 79.5 78.0 L 79.6 77.7 L 79.7 77.5 L 79.8 77.3 L 79.9 77.0 L 80.0 76.8 L 80.1 76.6 L 80.2 76.3 L 80.3 76.1 L 80.4 75.8 L 80.5 75.6 L 80.6 75.4 L 80.7 75.1 L 80.8 74.9 L 80.9 74.6 L 81.0 74.4 L 81.1 74.1 L 81.2 73.9 L 81.3 73.6 L 81.4 73.4 L 81.5 73.1 L 81.6 72.9 L 81.7 72.6 L 81.8 72.4 L 81.9 72.1 L 82.0 71.8 L 82.1 71.6 
L 82.2 71.3 L 82.3 71.1 L 82.4 70.8 L 82.5 70.6 L 82.6 70.3 L 82.7 70.0 L 82.8 69.8 L 82.9 69.5 L 83.0 69.3 L 83.1 69.0 L 83.2 68.8 L 83.3 68.5 L 83.4 68.3 L 83.5 68.0 L 83.6 67.8 L 83.7 67.5 L 83.8 67.3 L 83.9 67.0 L 84.0 66.8 L 84.1 66.5 L 84.2 66.3 L 84.3 66.0 L 84.4 65.8 L 84.5 65.5 L 84.6 65.3 L 84.7 65.1 L 84.8 64.8 L 84.9 64.6 L 85.0 64.3 L 85.1 64.1 L 85.2 63.9 L 85.3 63.6 L 85.4 63.4 L 85.5 63.2 L 85.6 63.0 L 85.7 62.7 L 85.8 62.5 L 85.9 62.3 L 86.0 62.1" stroke="#FF9900" fill="none"/>
</svg>