<svg xmlns="http://www.w3.org/2000/svg" xmlns:xlink="http://www.w3.org/1999/xlink" viewBox="0 0 100 100" shape-rendering="geometricPrecision" text-rendering="geometricPrecision">
    <path d="M 50 10 L 50 90" stroke="#000000"/>
    <path d="M 10 50 L 90 50" stroke="#000000"/>
    <path d="M 87 47 L 90 50 L 87 53" stroke="#000000" fill="none"/>
    <path d="M 53 13 L 50 10 L 47 13" stroke="#000000" fill="none"/>
    
    <path d="M 15 50 L 15 80.0" stroke="#0099FF" fill="none" />
    <path d="M 20 50 L 20 70.0" stroke="#0099FF" fill="none" />
    <path d="M 25 50 L 25 60.0" stroke="#0099FF" fill="none" />
    <path d="M 30 50 L 30 50.0" stroke="#0099FF" fill="none" />
    <path d="M 35 50 L 35 50.0" stroke="#0099FF" fill="none" />
    <path d="M 40 50 L 40 40.0" stroke="#0099FF" fill="none" />
    <path d="M 45 50 L 45 20.0" stroke="#0099FF" fill="none" />
    <path d="M 50 50 L 50 20.0" stroke="#0099FF" fill="none" />
    <path d="M 55 50 L 55 20.0" stroke="#0099FF" fill="none" />
    <path d="M 60 50 L 60 40.0" stroke="#0099FF" fill="none" />
    <path d="M 65 50 L 65 60.0" stroke="#0099FF" fill="none" />
    <path d="M 70 50 L 70 80.0" stroke="#0099FF" fill="none" />
    <path d="M 75 50 L 75 80.0" stroke="#0099FF" fill="none" />
    <path d="M 80 50 L 80 80.0" stroke="#0099FF" fill="none" />
    <path d="M 85 50 L 85 60.0" stroke="#0099FF" fill="none" />

    <ellipse cx="15" cy="80.0" rx="1" ry="1" fill="#00CCFF" />
    <ellipse cx="20" cy="70.0" rx="1" ry="1" fill="#00CCFF" />
    <ellipse cx="25" cy="60.0" rx="1" ry="1" fill="#00CCFF" />
    <ellipse cx="30" cy="50.0" rx="1" ry="1" fill="#00CCFF" />
    <ellipse cx="35" cy="50.0" rx="1" ry="1" fill="#00CCFF" />
    <ellipse cx="40" cy="40.0" rx="1" ry="1" fill="#00CCFF" />
    <ellipse cx="45" cy="20.0" rx="1" ry="1" fill="#00CCFF" />
    <ellipse cx="50" cy="20.0" rx="1" ry="1" fill="#00CCFF" />
    <ellipse cx="55" cy="20.0" rx="1" ry="1" fill="#00CCFF" />
    <ellipse cx="60" cy="40.0" rx="1" ry="1" fill="#00CCFF" />
    <ellipse cx="65" cy="60.0" rx="1" ry="1" fill="#00CCFF" />
    <ellipse cx="70" cy="80.0" rx="1" ry="1" fill="#00CCFF" />
    <ellipse cx="75" cy="80.0" rx="1" ry="1" fill="#00CCFF" />
    <ellipse cx="80" cy="80.0" rx="1" ry="1" fill="#00CCFF" />
    <ellipse cx="85" cy="60.0" rx="1" ry="1" fill="#00CCFF" />
</svg>