<svg xmlns="http://www.w3.org/2000/svg" xmlns:xlink="http://www.w3.org/1999/xlink" viewBox="0 0 200 100" shape-rendering="geometricPrecision" text-rendering="geometricPrecision">    
    <path d="M 90 80 L 90 20 L 40 20 L 40 50 L 140 50 L 140 20 L 140 70" stroke="#000000" fill="none"/>
    <path d="M 100 20 L 130 50" stroke="#000000" fill="none"/>
    <path d="M 100 50 L 130 20" stroke="#000000" fill="none"/>

    
    
    <rect x="20" y="10" width="40" height="20" rx="5" ry="5" fill="#FF9900" stroke="#FFFF00"/>
    <rect x="70" y="10" width="40" height="20" rx="5" ry="5" fill="#FF9900" stroke="#FFFF00"/>
    <rect x="120" y="10" width="40" height="20" rx="5" ry="5" fill="#FF9900" stroke="#FFFF00"/>

    <rect x="20" y="40" width="40" height="20" rx="5" ry="5" fill="#FF9900" stroke="#FFFF00"/>
    <rect x="70" y="40" width="40" height="20" rx="5" ry="5" fill="#FF9900" stroke="#FFFF00"/>
    <rect x="120" y="40" width="40" height="20" rx="5" ry="5" fill="#FF9900" stroke="#FFFF00"/>

    <rect x="70" y="70" width="40" height="20" rx="5" ry="5" fill="#FF9900" stroke="#FFFF00"/>
    <rect x="120" y="70" width="40" height="20" rx="5" ry="5" fill="#FF9900" stroke="#FFFF00"/>
    
    <text x="40" y="10" font-size="6" dominant-baseline="middle" text-anchor="middle" font-family="Consolas">
        <tspan x="40" dy="1.2em">blockiert</tspan>
        <tspan x="40" dy="1.2em">suspendiert</tspan>
    </text>
    <text x="90" y="20" font-size="6" dominant-baseline="middle" text-anchor="middle" font-family="Consolas">blockiert</text>
    <text x="140" y="20" font-size="6" dominant-baseline="middle" text-anchor="middle" font-family="Consolas">kernel</text>

    <text x="40" y="40" font-size="6" dominant-baseline="middle" text-anchor="middle" font-family="Consolas">
        <tspan x="40" dy="1.2em">bereit</tspan>
        <tspan x="40" dy="1.2em">suspendiert</tspan>
    </text>
    <text x="90" y="50" font-size="6" dominant-baseline="middle" text-anchor="middle" font-family="Consolas">bereit</text>
    <text x="140" y="50" font-size="6" dominant-baseline="middle" text-anchor="middle" font-family="Consolas">benutzer</text>

    <text x="90" y="80" font-size="6" dominant-baseline="middle" text-anchor="middle" font-family="Consolas">neu</text>
    <text x="140" y="80" font-size="6" dominant-baseline="middle" text-anchor="middle" font-family="Consolas">beendet</text>

    <path d="M 62.5 18 L 60.5 20 L 62.5 22" stroke="#000000" fill="none"/>
    <path d="M 67.5 18 L 69.5 20 L 67.5 22" stroke="#000000" fill="none"/>

    <path d="M 62.5 48 L 60.5 50 L 62.5 52" stroke="#000000" fill="none"/>
    <path d="M 67.5 48 L 69.5 50 L 67.5 52" stroke="#000000" fill="none"/>
    <path d="M 112.5 48 L 110.5 50 L 112.5 52" stroke="#000000" fill="none"/>
    <path d="M 117.5 48 L 119.5 50 L 117.5 52" stroke="#000000" fill="none"/>
    
    <path d="M 38 37.5 L 40 39.5 L 42 37.5" stroke="#000000" fill="none"/>

    <path d="M 88 37.5 L 90 39.5 L 92 37.5" stroke="#000000" fill="none"/>
    <path d="M 138 32.5 L 140 30.5 L 142 32.5" stroke="#000000" fill="none"/>
    <path d="M 138 37.5 L 140 39.5 L 142 37.5" stroke="#000000" fill="none"/>
    
    <path d="M 88 62.5 L 90 60.5 L 92 62.5" stroke="#000000" fill="none"/>
    <path d="M 138 67.5 L 140 69.5 L 142 67.5" stroke="#000000" fill="none"/>

    <path d="M 112 29 L 109 29 L 109 32" stroke="#000000" fill="none"/>
    <path d="M 112 41 L 109 41 L 109 38" stroke="#000000" fill="none"/>
</svg>