<svg xmlns="http://www.w3.org/2000/svg" xmlns:xlink="http://www.w3.org/1999/xlink" viewBox="0 0 60 70" shape-rendering="geometricPrecision" text-rendering="geometricPrecision">
    <path d="M 10 12 L 20 12" stroke="#000000" fill="none"/>
    <path d="M 10 58 L 20 58" stroke="#000000" fill="none"/>

    <path d="M 42 20 L 55 20" stroke="#000000" fill="none"/>
    <path d="M 42 50 L 55 50" stroke="#000000" fill="none"/>

    <path d="M 42 20 L 50 20 L 50 32 L 12 32 L 12 42 L 20 42" stroke="#000000" fill="none"/>
    <path d="M 42 50 L 50 50 L 50 38 L 15 38 L 15 28 L 20 28" stroke="#000000" fill="none"/>
    
    
    <ellipse cx="50" cy="20" rx="1" ry="1" fill="#000000" stroke="#000000"/>
    <ellipse cx="50" cy="50" rx="1" ry="1" fill="#000000" stroke="#000000"/>
    
    <ellipse cx="42" cy="20" rx="2" ry="2" fill="#666666" stroke="#999999"/>
    <ellipse cx="42" cy="50" rx="2" ry="2" fill="#666666" stroke="#999999"/>

    <rect x="20" y="10" width="20" height="20" fill="#666666" stroke="#999999"/>
    <rect x="20" y="40" width="20" height="20" fill="#666666" stroke="#999999"/>
    
    <text x="30" y="20" font-size="15" dominant-baseline="middle" text-anchor="middle" font-family="Consolas">&#8805;1</text>
    <text x="30" y="50" font-size="15" dominant-baseline="middle" text-anchor="middle" font-family="Consolas">&#8805;1</text>
</svg>