<svg xmlns="http://www.w3.org/2000/svg" xmlns:xlink="http://www.w3.org/1999/xlink" viewBox="0 0 130 150" shape-rendering="geometricPrecision" text-rendering="geometricPrecision">
    <path d="M 15 22 Q 20 0 25 22" stroke="#7777AA" fill="none"/>
    <path d="M 105 22 Q 110 0 115 22" stroke="#7777AA" fill="none"/>
    <path d="M 15 128 Q 20 150 25 128" stroke="#7777AA" fill="none"/>
    <path d="M 105 128 Q 110 150 115 128" stroke="#7777AA" fill="none"/>
    
    <path d="M 26 18 L 25 20 L 23 19" stroke="#7777AA" fill="none"/>
    <path d="M 116 18 L 115 20 L 113 19" stroke="#7777AA" fill="none"/>
    <path d="M 26 132 L 25 130 L 23 131" stroke="#7777AA" fill="none"/>
    <path d="M 116 132 L 115 130 L 113 131" stroke="#7777AA" fill="none"/>

    <path d="M 20 30 L 110 30" stroke="#7777AA" fill="none"/>
    <path d="M 20 30 L 110 120" stroke="#7777AA" fill="none"/>
    <path d="M 20 30 L 20 120" stroke="#7777AA" fill="none"/>
    <path d="M 20 120 L 110 30" stroke="#7777AA" fill="none"/>
    <path d="M 20 120 L 110 120" stroke="#7777AA" fill="none"/>
    <path d="M 110 30 L 110 120" stroke="#7777AA" fill="none"/>
    
    <path d="M 98 28 L 100 30 L 98 32" stroke="#7777AA" fill="none"/>

    <path d="M 98 118 L 100 120 L 98 122" stroke="#7777AA" fill="none"/>

    <path d="M 18 108 L 20 110 L 22 108" stroke="#7777AA" fill="none"/>
    <path d="M 108 108 L 110 110 L 112 108" stroke="#7777AA" fill="none"/>

    <path d="M 100 37 L 103 37 L 103 40" stroke="#7777AA" fill="none"/>
    <path d="M 100 113 L 103 113 L 103 110" stroke="#7777AA" fill="none"/>

    <ellipse cx="20" cy="30" rx="10" ry="10" fill="#00CCFF" stroke="#00FFFF" stroke-width="1"/>
    <ellipse cx="20" cy="120" rx="10" ry="10" fill="#00CCFF" stroke="#00FFFF" stroke-width="1"/>
    <ellipse cx="110" cy="30" rx="10" ry="10" fill="#00CCFF" stroke="#00FFFF" stroke-width="1"/>
    <ellipse cx="110" cy="120" rx="10" ry="10" fill="#00CCFF" stroke="#00FFFF" stroke-width="1"/>
    
    <text x="20" y="30" dominant-baseline="middle" text-anchor="middle" font-family="Consolas">a</text>
    <text x="20" y="120" dominant-baseline="middle" text-anchor="middle" font-family="Consolas">c</text>
    <text x="110" y="30" dominant-baseline="middle" text-anchor="middle" font-family="Consolas">b</text>
    <text x="110" y="120" dominant-baseline="middle" text-anchor="middle" font-family="Consolas">d</text>
</svg>