<svg xmlns="http://www.w3.org/2000/svg" xmlns:xlink="http://www.w3.org/1999/xlink" viewBox="0 0 100 100" shape-rendering="geometricPrecision" text-rendering="geometricPrecision">
    <path d="M 50 10 L 50 90" stroke="#000000"/>
    <path d="M 10 50 L 90 50" stroke="#000000"/>
    <path d="M 87 47 L 90 50 L 87 53" stroke="#000000" fill="none"/>
    <path d="M 53 13 L 50 10 L 47 13" stroke="#000000" fill="none"/>
    
    <path d="M 50 50 L 60 50" stroke="#990099" fill="none"/>
    <path d="M 50 50 L 50 40" stroke="#009999" fill="none"/>
    <path d="M 58.5 48.5 L 60 50 L 58.5 51.5" stroke="#990099" fill="none"/>
    <path d="M 48.5 41.5 L 50 40 L 51.5 41.5" stroke="#009999" fill="none"/>

    <g id="transformation">
        <rect x="30" y="30" width="40" height="40" fill="none"/>

        <path d="M 50 50 L 60 50" stroke="#990099" fill="none"/>
        <path d="M 50 50 L 50 40" stroke="#009999" fill="none"/>

        <path d="M 58.5 48.5 L 60 50 L 58.5 51.5" stroke="#990099" fill="none"/>
        <path d="M 48.5 41.5 L 50 40 L 51.5 41.5" stroke="#009999" fill="none"/>

        <path d="M 50 50 L 70 50" stroke="#990099" fill="none" stroke-dasharray="2 1" />
        <path d="M 50 50 L 50 30" stroke="#009999" fill="none" stroke-dasharray="2 1"/>
        <path d="M 70 50 L 70 30" stroke="#009999" fill="none" stroke-dasharray="2 1" />
        <path d="M 50 30 L 70 30" stroke="#990099" fill="none" stroke-dasharray="2 1"/>

        <path d="M 50 50 L 70 30" stroke="#0099FF" fill="none"/>
        <path d="M 68 30 L 70 30 L 70 32" stroke="#0099FF" fill="none"/>
    </g>

    <style>
        #transformation{
            animation: rotation 2s infinite;
        }

        @keyframes rotation{
            0% {
                transform-box: fill-box;
                transform-origin: center;
                transform: rotate(0deg);
            }
            100% {
                transform-box: fill-box;
                transform-origin: center;
                transform: rotate(-90deg);
            }
        }
    </style>
</svg>