<svg xmlns="http://www.w3.org/2000/svg" xmlns:xlink="http://www.w3.org/1999/xlink" viewBox="0 0 130 60" shape-rendering="geometricPrecision" text-rendering="geometricPrecision">
    
    <path d="M 15 22 Q 20 0 25 22" stroke="#7777AA" fill="none"/>
    <path d="M 45 22 Q 50 0 55 22" stroke="#7777AA" fill="none"/>
    <path d="M 75 22 Q 80 0 85 22" stroke="#7777AA" fill="none"/>
    <path d="M 105 22 Q 110 0 115 22" stroke="#7777AA" fill="none"/>
    
    <path d="M 26 18 L 25 20 L 23 19" stroke="#7777AA" fill="none"/>
    <path d="M 56 18 L 55 20 L 53 19" stroke="#7777AA" fill="none"/>
    <path d="M 86 18 L 85 20 L 83 19" stroke="#7777AA" fill="none"/>
    <path d="M 116 18 L 115 20 L 113 19" stroke="#7777AA" fill="none"/>

    <ellipse cx="20" cy="30" rx="10" ry="10" fill="#00CCFF" stroke="#00FFFF" stroke-width="1"/>
    <ellipse cx="50" cy="30" rx="10" ry="10" fill="#00CCFF" stroke="#00FFFF" stroke-width="1"/>
    <ellipse cx="80" cy="30" rx="10" ry="10" fill="#00CCFF" stroke="#00FFFF" stroke-width="1"/>
    <ellipse cx="110" cy="30" rx="10" ry="10" fill="#00CCFF" stroke="#00FFFF" stroke-width="1"/>
    
    <text x="20" y="30" dominant-baseline="middle" text-anchor="middle" font-family="Consolas">a</text>
    <text x="50" y="30" dominant-baseline="middle" text-anchor="middle" font-family="Consolas">b</text>
    <text x="80" y="30" dominant-baseline="middle" text-anchor="middle" font-family="Consolas">c</text>
    <text x="110" y="30" dominant-baseline="middle" text-anchor="middle" font-family="Consolas">d</text>
</svg>