<svg xmlns="http://www.w3.org/2000/svg" xmlns:xlink="http://www.w3.org/1999/xlink" viewBox="0 0 140 140" shape-rendering="geometricPrecision" text-rendering="geometricPrecision">
    <path d="M 110 70 L 70 30 L 70 70 L 30 110" stroke="#7777AA" fill="none"/>
    <path d="M 70 70 L 70 110" stroke="#7777AA" fill="none"/>
    <path d="M 70 70 L 110 110" stroke="#7777AA" fill="none"/>

    <path d="M 68 58 L 70 60 L 72 58" stroke="#7777AA" fill="none"/>
    <path d="M 100 63 L 103 63 L 103 60" stroke="#7777AA" fill="none"/>
    <path d="M 40 103 L 37 103 L 37 100" stroke="#7777AA" fill="none"/>
    <path d="M 68 98 L 70 100 L 72 98" stroke="#7777AA" fill="none"/>
    <path d="M 100 103 L 103 103 L 103 100" stroke="#7777AA" fill="none"/>
    
    <ellipse cx="70" cy="30" rx="10" ry="10" fill="#00CCFF" stroke="#00FFFF" stroke-width="1"/>
    <ellipse cx="30" cy="110" rx="10" ry="10" fill="#00CCFF" stroke="#00FFFF" stroke-width="1"/>
    <ellipse cx="70" cy="70" rx="10" ry="10" fill="#00CCFF" stroke="#00FFFF" stroke-width="1"/>
    <ellipse cx="70" cy="110" rx="10" ry="10" fill="#00CCFF" stroke="#00FFFF" stroke-width="1"/>
    <ellipse cx="110" cy="70" rx="10" ry="10" fill="#00CCFF" stroke="#00FFFF" stroke-width="1"/>
    <ellipse cx="110" cy="110" rx="10" ry="10" fill="#00CCFF" stroke="#00FFFF" stroke-width="1"/>
    
    <text x="70" y="30" dominant-baseline="middle" text-anchor="middle" font-family="Consolas">a</text>
    <text x="30" y="110" dominant-baseline="middle" text-anchor="middle" font-family="Consolas">d</text>
    <text x="70" y="70" dominant-baseline="middle" text-anchor="middle" font-family="Consolas">c</text>

    <text x="110" y="70" dominant-baseline="middle" text-anchor="middle" font-family="Consolas">b</text>
    <text x="70" y="110" dominant-baseline="middle" text-anchor="middle" font-family="Consolas">e</text>
    <text x="110" y="110" dominant-baseline="middle" text-anchor="middle" font-family="Consolas">f</text>
</svg>