<svg xmlns="http://www.w3.org/2000/svg" xmlns:xlink="http://www.w3.org/1999/xlink" viewBox="0 0 700 300" shape-rendering="geometricPrecision" text-rendering="geometricPrecision">
    <mask id="mask">
        <rect x="0" y="0" width="700" height="300" fill="#FFFFFF"/>
        <ellipse cx="185" cy="92.5" rx="10" ry="7" fill="#000000"/>
    </mask>

    <path d="M 185 40 L 340 90 L 185 185 L 45 95 L 180 95 L 180 90 L 60 90 L 45 95 L 50 200 L 40 230 L 30 200 L 40 90 L 185 40" stroke="#000000" fill="#000000" mask="url(#mask)"/>
    <path d="M 185 200 L 285 145 L 295 200 Q 250 250 185 275 Q 120 250 80 200 L 90 145 L 185 200" fill="#000000"/>

    <path d="M 355 115 L 440 115 L 440 135 L 380 135 L 380 200 L 440 200 L 440 220 L 355 220 L 355 115" fill="#000000"/>
    <path d="M 465 115 L 550 115 L 550 135 L 485 135 L 485 160 L 550 160 L 550 220 L 465 220 L 465 200 L 530 200 L 530 180 L 465 180 L 465 115" fill="#000000"/>
    <path d="M 570 115 L 660 115 L 660 220 L 640 220 L 640 135 L 590 135 L 590 160 L 640 160 L 640 180 L 590 180 L 590 220 L 570 220 L 570 115" fill="#000000"/>
</svg>